<?xml version="1.0" encoding="UTF-8"?>
<svg width="106px" height="109px" viewBox="0 0 106 109" version="1.1" xmlns="http://www.w3.org/2000/svg" xmlns:xlink="http://www.w3.org/1999/xlink">
    <title>postgresql-2</title>
    <g id="Page-1" stroke="none" stroke-width="1" fill="none" fill-rule="evenodd">
        <g id="postgresql-2" fill-rule="nonzero">
            <path d="M98.2497653,67.091004 C86.0089357,69.6086806 85.1672244,65.476572 85.1672244,65.476572 C98.0913013,46.3557721 103.494306,22.0847127 98.8321719,16.1444732 C86.112246,-0.0593511065 64.0939819,7.60407082 63.7264277,7.80269438 L63.6083,7.8240341 C61.1897689,7.32337142 58.4835331,7.0254361 55.4414358,6.97578021 C49.9030161,6.88549677 45.7014563,8.42359817 42.513243,10.8341658 C42.513243,10.8341658 3.23475058,-5.29948362 5.06181993,31.124957 C5.45036542,38.8737378 16.2012218,89.7570702 29.0240464,74.3879572 C33.7108764,68.7678135 38.2396541,64.0160323 38.2396541,64.0160323 C40.4886081,65.505709 43.1812613,66.2657313 46.0039785,65.9928291 L46.2233586,65.8073377 C46.1550338,66.5049824 46.186315,67.1874431 46.3110283,67.9954798 C43.0075683,71.6753505 43.9785205,72.3212874 37.3748934,73.67677 C30.6926517,75.0498989 34.6180314,77.4941177 37.1810323,78.1334886 C40.2881614,78.9078742 47.4762531,80.0052283 52.3330719,73.2261736 L52.1396223,73.9997385 C53.4336764,75.0334838 54.3424777,80.7229816 54.1901876,85.8810382 C54.0378976,91.0386845 53.9362336,94.579847 54.955754,97.3458031 C55.9760975,100.111759 56.9923251,106.33516 65.6736827,104.480657 C72.927218,102.930654 76.6863134,98.9142725 77.2094504,92.214421 C77.5802973,87.4515596 78.4203623,88.1557704 78.4730464,83.897265 L79.1468271,81.8814822 C79.9235065,75.4249856 79.2703056,73.3419005 83.7389904,74.3108059 L84.8256007,74.4060139 C88.1142432,74.5549816 92.4195249,73.8782662 94.9463054,72.7074542 C100.386766,70.190188 103.613669,65.9866734 98.2489421,67.091004 L98.2497653,67.091004" id="Path"></path>
            <path d="M44.671665,33.8864731 C43.6931043,33.7186583 42.8069227,33.8738758 42.3585374,34.2922882 C42.1065945,34.527589 42.0284557,34.8002319 42.0072779,34.9878427 C41.9510472,35.4849886 42.2336614,36.0347736 42.4074654,36.3182143 C42.8989366,37.1208463 43.6167912,37.6724309 44.3273431,37.7939055 C44.430311,37.8119017 44.5329138,37.82 44.6347864,37.82 C45.8196481,37.82 46.8971603,36.6830879 46.9920953,35.8440135 C47.110764,34.7930334 45.8725926,34.09253 44.671665,33.886923" id="Path" fill="#FFFFFF"></path>
            <path d="M81.9945762,34.6282663 C81.8918982,33.9115196 80.5851604,33.7071822 79.3450028,33.8755061 C78.1064496,34.04383 76.9055985,34.5895126 77.00587,35.3078251 C77.0860872,35.8664255 78.1196855,36.82 79.3429974,36.82 C79.4464776,36.82 79.5507599,36.8133453 79.6558444,36.7988616 C80.4724553,36.6884725 81.0716776,36.1823264 81.3564485,35.8906955 C81.7896213,35.4460072 82.0407011,34.9504304 81.9945762,34.6282663" id="Path" fill="#FFFFFF"></path>
            <path d="M103.890098,66.8524872 C103.414084,65.436652 101.88194,64.9812229 99.3364833,65.4981741 C91.7786086,67.0325117 89.0719618,65.9697063 88.1833186,65.3259947 C94.0579344,56.5229597 98.8906925,45.8816926 101.497855,35.9535042 C102.732805,31.2505695 103.414923,26.8829099 103.470752,23.3228833 C103.532458,19.4156075 102.855796,16.5442986 101.460496,14.790298 C95.834801,7.71937997 87.578017,3.92647758 77.5834046,3.8224267 C70.712266,3.74645304 64.9069116,5.4760925 63.7815208,5.96248908 C61.4115257,5.38277703 58.8278702,5.02685695 56.0150227,4.98143791 C50.8569464,4.89927075 46.3981991,6.1140235 42.7067829,8.59018676 C41.1032793,8.00304249 36.959356,6.60372329 31.8915293,5.80063216 C23.1301874,4.41328706 16.1679597,5.46453129 11.1996173,8.92670052 C5.27127165,13.0581812 2.53440174,20.4433164 3.06456534,30.8764818 C3.2429656,34.3865475 5.27630884,45.1847168 8.48499498,55.5258055 C12.7086737,69.1366518 17.3000668,76.8417848 22.1307262,78.4269091 C22.6961501,78.6123014 23.3480456,78.7419521 24.0671036,78.7419521 C25.8292784,78.7419521 27.9898106,77.9607446 30.2376539,75.3024924 C32.9793777,72.0672336 35.815515,68.9105335 38.7425191,65.8363395 C40.6415375,66.8388615 42.7277711,67.3987543 44.8614383,67.4549088 C44.8656359,67.5098245 44.8710929,67.5647403 44.8761301,67.6192431 C44.5088461,68.0500559 44.1491929,68.4871079 43.7973332,68.9302016 C42.3189197,70.776279 42.0112317,71.1606892 37.2523522,72.1243985 C35.8986091,72.3993902 32.303319,73.1281592 32.2504286,75.6072128 C32.1933405,78.3158389 36.5005525,79.4533793 36.9912582,79.5739462 C38.7013821,79.9951046 40.348961,80.2027934 41.9201426,80.2027934 C45.7412664,80.2027934 49.1040064,78.9673956 51.791344,76.5771157 C51.7086503,86.2332027 52.1179214,95.7480778 53.2966225,98.647051 C54.2620827,101.020402 56.6203243,106.82 64.0694798,106.82 C65.1625487,106.82 66.3655961,106.694891 67.6891162,106.415771 C75.4635898,104.776556 78.8397623,101.396554 80.1456522,93.944942 C80.8445615,89.9625184 82.043831,80.453011 82.6079956,75.3520404 C83.79845,75.7174572 85.3310132,75.8846818 86.987827,75.8842689 C90.4433351,75.8842689 94.430686,75.1621062 96.931228,74.0204368 C99.7402976,72.7371426 104.809384,69.5883647 103.890098,66.8524872 L103.890098,66.8524872 Z M85.3759281,32.383568 C85.3503225,33.8894155 85.1396003,35.2565285 84.9162851,36.683512 C84.6757596,38.2182625 84.4272585,39.8050385 84.3647135,41.7312185 C84.303008,43.605786 84.5410149,45.5546755 84.7710463,47.4395655 C85.2361463,51.2465065 85.7134195,55.1657564 83.8660323,59.0329808 C83.5591582,58.4981255 83.2858013,57.9453226 83.0474899,57.3776634 C82.8178782,56.8301576 82.319197,55.9506799 81.6286831,54.7334497 C78.9426048,49.9950056 72.6524214,38.8987223 75.8724412,34.3708573 C76.831605,33.0231506 79.2658241,31.6374571 85.3759281,32.383568 L85.3759281,32.383568 Z M77.9695887,6.8716956 C86.9248622,7.06617165 94.0088218,10.3615292 99.0241779,16.6656913 C102.870907,21.501167 98.6350555,43.5033867 86.372451,62.4848275 C86.2491312,62.3305843 86.1251594,62.1768464 86.0005389,62.0236179 L85.8452258,61.8328579 C89.0140342,56.6852296 88.3944606,51.5921041 87.842889,47.0766261 C87.6162157,45.2235294 87.4021354,43.473245 87.4567049,41.8290759 C87.5129534,40.0866365 87.7471825,38.5919373 87.9738557,37.1467862 C88.2521601,35.3659471 88.5355017,33.5231729 88.4574254,31.3509043 C88.5157728,31.1229833 88.5392796,30.8537723 88.5086368,30.5341875 C88.3092482,28.4511053 85.8914,22.2167233 80.963355,16.5740274 C78.2676221,13.4875975 74.3365199,10.0336863 68.9689806,7.70410266 C71.2776899,7.23339629 74.4347449,6.79448324 77.9695887,6.8716956 Z M27.8588438,73.356906 C25.3822284,76.2860209 23.6721044,75.7244765 23.1096189,75.5403229 C19.4450676,74.3379572 15.1928449,66.7191204 11.4439208,54.6376569 C8.19997433,44.1838464 6.30431412,33.671817 6.15403813,30.7241216 C5.68054285,21.4016581 7.97791847,14.9046714 12.9827804,11.4131863 C21.1279068,5.7316778 34.5192602,9.13232488 39.9002319,10.8570095 C39.8229951,10.9321574 39.7424001,11.0023505 39.6660028,11.078737 C30.8358195,19.8503915 31.0452824,34.8370217 31.0671102,35.7532476 C31.0662706,36.1066902 31.0964937,36.6071254 31.1376307,37.2954303 C31.2895858,39.8161868 31.5725076,44.5075603 30.81693,49.8203488 C30.1150824,54.757398 31.6623374,59.5895705 35.0611772,63.0781653 C35.4099946,63.4355054 35.7766206,63.7756028 36.1597031,64.0972033 C34.6468689,65.6909986 31.3588471,69.2155158 27.8588438,73.356906 Z M37.2947485,60.9727866 C34.55536,58.1609353 33.3111756,54.2499435 33.8807971,50.2415071 C34.6783513,44.6293659 34.3840958,39.7414518 34.2258442,37.1154057 C34.2035967,36.7479245 34.1838677,36.4258622 34.172534,36.1719285 C35.4624729,35.0467751 41.4403509,31.8963456 45.7034875,32.8571647 C47.64868,33.2952519 48.8340973,34.5983654 49.3269018,36.8395883 C51.8773959,48.4433262 49.6643931,53.2796277 47.8862672,57.1662585 C47.5198121,57.9668722 47.1735057,58.7237185 46.8779909,59.5065775 L46.648799,60.1118894 C46.0686833,61.642098 45.5288651,63.0649525 45.1943122,64.4159624 C42.2819804,64.4077044 39.4489842,63.1838678 37.2947485,60.9723737 L37.2947485,60.9727866 Z M37.7417986,76.6217089 C36.891354,76.4127813 36.1265416,76.0498419 35.6778125,75.7488376 C36.0526629,75.5754195 36.71967,75.3392405 37.8765433,75.1047131 C43.4749534,73.9713017 44.33967,73.1711009 46.2277744,70.8130271 C46.6605525,70.2721277 47.1512581,69.6593836 47.8308582,68.9128598 L47.8316977,68.912034 C48.8437519,67.7972031 49.3067531,67.9863115 50.1462837,68.3290188 C50.8267233,68.605662 51.4895328,69.4446754 51.7581826,70.3679206 C51.8853715,70.8039433 52.0280917,71.6313956 51.5608929,72.2755201 C47.6167779,77.7076367 41.869351,77.6378566 37.7417986,76.6217089 L37.7417986,76.6217089 Z M67.0409985,103.440411 C60.1921075,104.88391 57.7671232,101.446515 56.1690766,97.5169428 C55.1377132,94.9800832 54.6306367,83.5402667 54.9903756,70.9067555 C54.994993,70.7387051 54.9706466,70.5764352 54.9236329,70.4236621 C54.8815782,70.1219849 54.8176102,69.8236581 54.7322199,69.5309716 C54.1974389,67.6927394 52.8940675,66.1550985 51.3304417,65.5175804 C50.709189,65.2644725 49.5691064,64.7999597 48.1989924,65.1447314 C48.491149,63.9605333 48.9978058,62.6231492 49.5472786,61.1751077 L49.7777298,60.5660797 C50.0371447,59.8794265 50.3628826,59.1679992 50.7070902,58.414869 C52.5679099,54.3486266 55.1163052,48.7790141 52.3504714,36.1967025 C51.3144906,31.4838582 47.8547848,29.1823518 42.6102368,29.7170577 C39.4661946,30.0370555 36.5895428,31.2848402 35.1547849,32.0003965 C34.8462574,32.1539954 34.5641751,32.3026396 34.3005625,32.4471547 C34.7010186,27.6988009 36.2138528,18.8247471 41.8731289,13.2101285 C45.4365168,9.67570171 50.1819638,7.92995913 55.9638114,8.02410041 C67.3562423,8.20742815 74.661838,13.9583039 78.784773,18.750838 C82.3376667,22.8802541 84.2614512,27.0402249 85.029202,29.2839253 C79.2553299,28.7062777 75.3284253,29.8273021 73.3378982,32.6267663 C69.0071793,38.7162203 75.7070536,50.5350792 78.9270735,56.215349 C79.5176833,57.2562707 80.0272784,58.1559805 80.1876287,58.5383262 C81.2362025,61.0380248 82.5937236,62.7069679 83.5847895,63.9250239 C83.8886996,64.2982858 84.1833749,64.6603994 84.4075295,64.976681 C82.6587872,65.4725743 79.5176833,66.6183727 79.8039632,72.3457131 C79.5730923,75.2194994 77.9313901,88.6742694 77.0973164,93.4279908 C75.996272,99.7082048 73.6468454,102.047285 67.0409985,103.440824 L67.0409985,103.440411 Z M95.6286962,71.2606111 C93.8404959,72.076915 90.8479889,72.6892462 88.0053381,72.8209614 C84.8654935,72.9654765 83.2670271,72.4749509 82.8909174,72.1731208 C82.714616,68.6040104 84.065001,68.2311614 85.494302,67.8364287 C85.7188764,67.7744936 85.9379939,67.7137973 86.1495556,67.6411268 C86.2809422,67.7464164 86.4249217,67.8508802 86.5827534,67.9532795 C89.1063826,69.5916679 93.6075262,69.7683893 99.9623534,68.4780758 L100.032034,68.4644501 C99.1748737,69.2526768 97.7082136,70.3105274 95.6286962,71.2606111 Z" id="Shape" fill="#FFFFFF"></path>
            <rect id="Rectangle" fill-opacity="0" fill="#000000" x="0" y="0.82" width="106" height="108"></rect>
        </g>
    </g>
</svg>