<?xml version="1.0" encoding="UTF-8" standalone="no"?>
<!DOCTYPE svg PUBLIC "-//W3C//DTD SVG 1.1//EN" "http://www.w3.org/Graphics/SVG/1.1/DTD/svg11.dtd">
<svg width="100%" height="100%" viewBox="0 0 2047 2500" version="1.1" xmlns="http://www.w3.org/2000/svg" xmlns:xlink="http://www.w3.org/1999/xlink" xml:space="preserve" xmlns:serif="http://www.serif.com/" style="fill-rule:evenodd;clip-rule:evenodd;stroke-linejoin:round;stroke-miterlimit:2;">
    <g transform="matrix(0.817124,0,0,0.817124,204.112,21.2304)">
        <path d="M2013.09,1902.3L1162.74,96.468C1141.25,51.255 1096.53,21.358 1046.54,18.771C996.427,15.414 948.429,40.297 922.293,83.179L0,1576.98C-28.583,1622.95 -27.979,1681.57 1.545,1726.94L452.462,2425.23C487.397,2478.9 553.948,2503.38 615.336,2485.12L1923.89,2098.06C1963.73,2086.41 1996.62,2058.01 2013.95,2020.3C2031.05,1982.76 2030.75,1939.54 2013.15,1902.24L2013.09,1902.3ZM1822.7,1979.75L712.319,2308.09C678.446,2318.17 645.933,2288.81 652.979,2254.63L1049.69,355.089C1057.1,319.547 1106.18,313.922 1121.7,346.806L1856.08,1906.32C1859.37,1913.35 1861.07,1921.01 1861.07,1928.77C1861.07,1952.36 1845.32,1973.25 1822.64,1979.75L1822.7,1979.75Z" style="fill:white;"/>
    </g>
</svg>
